<?xml version="1.0" encoding="UTF-8" standalone="no"?>
<!-- Created with Inkscape (http://www.inkscape.org/) -->

<svg
   width="59.999996mm"
   height="59.999989mm"
   viewBox="0 0 59.999996 59.999989"
   version="1.1"
   id="svg1"
   xmlns:inkscape="http://www.inkscape.org/namespaces/inkscape"
   xmlns:sodipodi="http://sodipodi.sourceforge.net/DTD/sodipodi-0.dtd"
   xmlns="http://www.w3.org/2000/svg"
   xmlns:svg="http://www.w3.org/2000/svg">
  <sodipodi:namedview
     id="namedview1"
     pagecolor="#ffffff"
     bordercolor="#000000"
     borderopacity="0.25"
     inkscape:showpageshadow="2"
     inkscape:pageopacity="0.0"
     inkscape:pagecheckerboard="0"
     inkscape:deskcolor="#d1d1d1"
     inkscape:document-units="mm">
    <inkscape:page
       x="0"
       y="0"
       width="59.999996"
       height="59.999989"
       id="page2"
       margin="0"
       bleed="0" />
  </sodipodi:namedview>
  <defs
     id="defs1">
    <clipPath
       clipPathUnits="userSpaceOnUse"
       id="clipPath101-1">
      <path
         d="M 0,1775.254 H 1809 V 0 H 0 Z"
         transform="translate(-1194.8043,-708.27909)"
         id="path101-7" />
    </clipPath>
    <clipPath
       clipPathUnits="userSpaceOnUse"
       id="clipPath103-1">
      <path
         d="M 0,1775.254 H 1809 V 0 H 0 Z"
         transform="translate(-1196.7478,-515.85369)"
         id="path103-8" />
    </clipPath>
  </defs>
  <g
     inkscape:label="Layer 1"
     inkscape:groupmode="layer"
     id="layer1"
     transform="translate(-11.946336,-304.89281)">
    <rect
       style="fill:none;stroke-width:0.22663"
       id="rect1"
       width="60"
       height="60"
       x="11.946337"
       y="304.89282" />
    <path
       id="path100-6"
       d="m 0,0 c -0.954,2.814 -6.058,1.098 -8.395,1.546 -11.889,0.11 -23.793,0.518 -35.685,0.691 -6.357,0.094 -12.213,0.062 -18.996,0.076 -3.002,0.331 -2.168,-1.481 -2.267,-3.802 0.001,-3.864 -10e-4,-9.821 0.001,-12.102 -0.057,-1.415 1.244,-1.179 2.519,-1.276 5.301,-0.144 10.815,-0.303 13.696,-0.337 2.17,-0.356 6.647,0.959 6.964,-2.249 0.576,-19.75 1.885,-39.515 2.153,-59.287 -0.845,-6.375 0.66,-4.417 5.737,-4.657 3.478,-0.099 6.991,-0.447 10.486,-0.204 2.558,-0.051 2.975,2.335 2.867,4.451 0.417,20.542 -0.518,41.169 0.092,61.661 1.032,2.433 4.418,1.548 6.541,1.687 4.154,-0.07 8.374,-0.125 12.501,0.377 2.378,0.489 1.811,3.528 1.927,5.501 -0.051,2.615 0.21,5.279 -0.128,7.871 z"
       style="fill:#333333;fill-opacity:1;fill-rule:nonzero;stroke:none"
       transform="matrix(0.35277776,0,0,-0.35277776,38.161144,320.03347)"
       clip-path="url(#clipPath101-1)"
       sodipodi:nodetypes="ccccccccccccccccccc" />
    <path
       id="path102-0"
       d="m 0,0 c -1.526,0.105 -3.165,0.391 -4.761,0.387 -3.019,0.408 -8.869,-1.049 -9.603,3.034 -0.202,8.212 0.171,16.421 0.377,24.627 -0.132,2.433 0.828,6.881 -2.794,6.862 -5.328,0.075 -10.642,0.004 -15.956,-0.582 -2.032,-0.506 -4.433,0.563 -6.301,-0.368 -1.064,-1.029 -0.559,-2.899 -0.751,-4.258 -0.177,-3.175 -0.095,-6.365 -0.222,-9.542 -0.558,-6.003 0.372,-12.415 -1.193,-18.227 -0.653,-1.064 -2.084,-1.171 -3.242,-1.248 -4.14,-0.266 -8.228,-0.959 -12.385,-0.949 -3.648,-0.215 -4.348,2.113 -4.121,5.33 -0.015,25.753 1.278,51.464 1.265,77.207 -0.001,1.816 1.318,2.636 2.948,2.606 4.061,0.158 8.115,0.228 12.199,0.147 4.332,0.131 5.362,-0.912 5.126,-5.23 0.174,-8.536 -0.468,-17.05 -0.277,-25.572 0.03,-2.757 6.033,-1.8 7.986,-2.026 4.547,0.096 9.086,0.116 13.643,0.179 1.558,-0.108 3.142,0.477 3.089,2.265 0.322,8.412 0.372,16.841 0.675,25.253 0.015,2.835 0.621,4.425 3.862,4.12 4.736,-0.156 9.537,0.189 14.242,-0.37 C 7.643,83.046 6.451,72.038 6.172,69.063 6.807,58.214 7.097,47.31 6.929,36.41 6.962,25.487 6.715,14.614 6.632,3.702 6.688,-0.235 3.15,-0.227 0.059,-0.004 Z"
       style="fill:#333333;fill-opacity:1;fill-rule:nonzero;stroke:none"
       transform="matrix(0.35277776,0,0,-0.35277776,63.706574,349.22936)"
       clip-path="url(#clipPath103-1)"
       inkscape:export-filename="path102-0.svg"
       inkscape:export-xdpi="96"
       inkscape:export-ydpi="96" />
  </g>
</svg>
