<?xml version="1.0" encoding="UTF-8" standalone="no"?>
<!-- Created with Inkscape (http://www.inkscape.org/) -->

<svg
   version="1.1"
   id="svg1"
   width="1511.5034"
   height="123.33279"
   viewBox="0 0 1511.5034 123.33279"
   xmlns="http://www.w3.org/2000/svg"
   xmlns:svg="http://www.w3.org/2000/svg">
  <defs
     id="defs1">
    <clipPath
       clipPathUnits="userSpaceOnUse"
       id="clipPath101-1">
      <path
         d="M 0,1775.254 H 1809 V 0 H 0 Z"
         transform="translate(-1194.8043,-708.27909)"
         id="path101-7" />
    </clipPath>
    <clipPath
       clipPathUnits="userSpaceOnUse"
       id="clipPath31-7">
      <path
         d="M 0,1775.254 H 1809 V 0 H 0 Z"
         transform="translate(-1237.0308,-676.19919)"
         id="path31-8" />
    </clipPath>
    <clipPath
       clipPathUnits="userSpaceOnUse"
       id="clipPath25-2">
      <path
         d="M 0,1775.254 H 1809 V 0 H 0 Z"
         transform="translate(-1338.2278,-659.90942)"
         id="path25-9" />
    </clipPath>
    <clipPath
       clipPathUnits="userSpaceOnUse"
       id="clipPath23-8">
      <path
         d="M 0,1775.254 H 1809 V 0 H 0 Z"
         transform="translate(-1393.1779,-682.89092)"
         id="path23-2" />
    </clipPath>
    <clipPath
       clipPathUnits="userSpaceOnUse"
       id="clipPath29-0">
      <path
         d="M 0,1775.254 H 1809 V 0 H 0 Z"
         transform="translate(-1513.2313,-672.84002)"
         id="path29-7" />
    </clipPath>
    <clipPath
       clipPathUnits="userSpaceOnUse"
       id="clipPath41-4">
      <path
         d="M 0,1775.254 H 1809 V 0 H 0 Z"
         transform="translate(-1540.5882,-672.74912)"
         id="path41-8" />
    </clipPath>
    <clipPath
       clipPathUnits="userSpaceOnUse"
       id="clipPath37-5">
      <path
         d="M 0,1775.254 H 1809 V 0 H 0 Z"
         transform="translate(-1604.9236,-674.24154)"
         id="path37-8" />
    </clipPath>
    <clipPath
       clipPathUnits="userSpaceOnUse"
       id="clipPath19-3">
      <path
         d="M 0,1775.254 H 1809 V 0 H 0 Z"
         transform="translate(-1697.3991,-675.01464)"
         id="path19-0" />
    </clipPath>
    <clipPath
       clipPathUnits="userSpaceOnUse"
       id="clipPath21-4-9">
      <path
         d="M 0,1775.254 H 1809 V 0 H 0 Z"
         transform="translate(-1350.7437,-576.79989)"
         id="path21-4-0" />
    </clipPath>
    <clipPath
       clipPathUnits="userSpaceOnUse"
       id="clipPath27-9-5">
      <path
         d="M 0,1775.254 H 1809 V 0 H 0 Z"
         transform="translate(-1454.5464,-553.75569)"
         id="path27-1-6" />
    </clipPath>
    <clipPath
       clipPathUnits="userSpaceOnUse"
       id="clipPath33-7-4">
      <path
         d="M 0,1775.254 H 1809 V 0 H 0 Z"
         transform="translate(-1268.9506,-571.85341)"
         id="path33-7-3" />
    </clipPath>
    <clipPath
       clipPathUnits="userSpaceOnUse"
       id="clipPath35-5-3">
      <path
         d="M 0,1775.254 H 1809 V 0 H 0 Z"
         transform="translate(-1566.3423,-603.45744)"
         id="path35-8-0" />
    </clipPath>
    <clipPath
       clipPathUnits="userSpaceOnUse"
       id="clipPath39-5-3">
      <path
         d="M 0,1775.254 H 1809 V 0 H 0 Z"
         transform="translate(-1471.321,-558.48901)"
         id="path39-5-6" />
    </clipPath>
    <clipPath
       clipPathUnits="userSpaceOnUse"
       id="clipPath103-1-5">
      <path
         d="M 0,1775.254 H 1809 V 0 H 0 Z"
         transform="translate(-1196.7478,-515.85369)"
         id="path103-8-9" />
    </clipPath>
  </defs>
  <g
     id="layer-MC3"
     transform="translate(-4592,-4245.3688)">
    <g
       id="g1">
      <path
         id="path18-2"
         d="m 0,0 c 0.107,-8.008 -0.224,-16.061 0.143,-24.062 0.234,-2.795 3.14,-2.442 5.494,-2.506 2.954,0.068 6.019,-0.276 8.838,0.74 6.273,2.294 11.089,7.57 12.959,13.964 1.578,4.017 1.736,8.321 1.125,12.598 -0.632,4.429 -1.368,8.863 -2.51,13.194 -2.145,6.58 -9.064,10.182 -15.406,11.486 -1.663,0.335 -3.367,0.534 -5.064,0.638 -1.4,0.002 -3.94,0.474 -4.793,-0.864 C 0.416,24.599 0.349,23.672 0.302,22.935 0.016,15.315 -0.022,7.682 0,0.061 Z M 34.504,33.445 C 39.388,29.838 43.97,25.584 46.505,20.005 48.286,16.2 49.6,12.161 50.33,8.015 50.873,4.343 50.572,0.64 50.511,-3.051 c -0.451,-9.357 -3.626,-18.478 -8.294,-26.55 -5.099,-9.018 -11.422,-12.413 -21.339,-14.628 -11.365,-2.249 -22.977,-1.554 -34.481,-1.358 -2.227,0.045 -4.532,0.222 -4.777,2.976 -0.438,3.061 -0.458,6.226 -0.698,9.318 -0.961,14.049 -0.423,28.127 0.263,42.177 0.362,9.003 0.256,18.026 0.479,27.032 0.035,0.861 0.155,1.71 0.602,2.275 0.669,0.901 2.101,0.978 3.201,1.032 6.205,0.26 12.407,0.782 18.62,0.854 10.338,-0.06 21.639,-0.463 30.368,-6.597 z"
         style="fill:#ffffff;fill-opacity:1;fill-rule:nonzero;stroke:none"
         transform="matrix(1.3333333,0,0,-1.3333333,5349.2976,4302.436)"
         clip-path="url(#clipPath19-3)" />
      <path
         id="path24-2"
         d="m 0,0 c -1.436,-7.204 -4.861,-14.413 -10.879,-18.879 -1.823,-1.478 -3.983,-2.019 -6.285,-1.293 -5.025,1.356 -9.854,4.479 -11.9,9.399 -0.665,1.453 -0.839,3.052 -0.956,4.625 -0.801,5.49 -0.693,11.021 -0.508,16.553 0.048,1.568 0.111,3.136 0.196,4.703 0.195,3.331 0.26,6.92 1.94,9.891 1.217,2.358 3.207,4.204 5.157,6.001 0.827,0.77 1.683,1.551 2.649,2.137 1.449,0.9 3.094,1.312 4.784,1.367 1.731,0.06 3.674,0.003 5.325,-0.402 C -4.23,32.635 -1.211,25.929 -0.529,20.07 0.003,15.411 0.268,10.707 0.44,6.029 0.509,4.031 0.393,2.024 0.011,0.06 Z m 19.16,7.045 c -0.17,8.606 -1.533,15.384 -3.624,22.308 -0.554,1.946 -1.318,3.801 -2.272,5.571 -0.676,1.308 -1.584,2.521 -2.17,3.838 -0.358,0.785 -0.629,1.609 -1.015,2.382 -0.476,0.967 -1.192,1.793 -1.929,2.574 -2.421,2.52 -4.963,4.842 -7.989,6.784 -8.746,5.701 -21.148,4.378 -30.259,0.248 -2.03,-0.804 -4.117,-1.456 -5.839,-2.856 -10.098,-8.127 -13.568,-21.539 -14.825,-33.938 -0.276,-2.425 -0.638,-4.857 -0.401,-7.301 0.438,-4.719 1.241,-9.386 2.234,-14.02 0.326,-1.501 0.78,-2.975 1.469,-4.35 2.927,-5.38 5.829,-11.418 11.293,-14.655 5.587,-3.139 11.342,-6.786 17.81,-7.541 1.941,-0.214 3.916,-0.036 5.838,0.295 3.73,0.652 7.473,1.293 11.103,2.394 2.895,0.904 5.396,2.576 7.808,4.332 2.155,1.546 3.33,3.703 4.864,5.958 0.799,1.174 2.086,3.259 2.585,4.101 0.249,0.406 0.256,0.498 0.487,0.738 3.915,3.762 5.157,15.874 4.833,23.065 z"
         style="fill:#ffffff;fill-opacity:1;fill-rule:nonzero;stroke:none"
         transform="matrix(1.3333333,0,0,-1.3333333,4870.4026,4322.5763)"
         clip-path="url(#clipPath25-2)" />
      <path
         id="path30-7"
         d="m 0,0 c 4.635,0.002 9.902,-0.446 13.667,2.872 2.28,2.041 3.943,5.055 3.105,8.096 -1.278,3.814 -5.042,7.059 -8.945,7.939 -4.41,0.839 -8.894,1.199 -13.348,1.676 -2.759,0.222 -6.018,0.47 -6.269,-3.107 C -12.328,12.867 -12.234,8.32 -11.999,3.699 -11.904,0.89 -10.377,0.378 -7.863,0.235 -5.258,0.01 -2.665,-0.055 -0.061,0 Z m -8.829,-32.73 c 0.186,-3.692 0.043,-7.422 0.088,-11.125 -0.07,-1.941 0.456,-5.063 -2.245,-5.249 -4.24,-0.28 -8.501,0.022 -12.742,0.04 -2.523,0.024 -6.278,0.315 -6.361,3.583 -0.272,24.773 -0.165,49.586 0.271,74.371 0.346,2.509 -0.95,6.779 2.778,6.666 6.967,0.411 13.958,0.284 20.93,-0.173 8.43,-0.376 16.876,-0.511 25.286,-1.265 3.825,-0.121 7.16,-2.125 10.017,-4.52 6.649,-4.795 9.459,-12.11 9.463,-20.135 C 38.601,6.32 37.307,3.293 36.361,0.306 34.619,-5.092 30.57,-7.336 26.102,-10.209 c -1.336,-0.923 -1.274,-2.418 -0.581,-3.731 0.783,-1.716 1.62,-3.396 2.437,-5.093 4.563,-9.135 8.005,-18.803 11.374,-28.42 0.98,-3.136 -5.896,-2.418 -7.693,-2.64 -4.235,0.129 -8.608,0.407 -12.743,1.477 -1.315,0.468 -2.07,1.653 -2.573,2.903 -1.397,3.395 -2.727,6.809 -4.053,10.225 -2.326,5.715 -4.896,11.306 -7.275,17.026 -1.019,3.548 -5.074,2.777 -7.986,2.753 -4.158,-0.164 -6.314,-0.143 -5.946,-4.96 0.036,-4.008 -0.109,-8.016 0.104,-12.005 z"
         style="fill:#ffffff;fill-opacity:1;fill-rule:nonzero;stroke:none"
         transform="matrix(1.3333333,0,0,-1.3333333,4735.4733,4300.8566)"
         clip-path="url(#clipPath31-7)" />
      <path
         id="path36-2"
         d="m 0,0 c -0.109,11.08 0.025,24.398 -0.092,36.317 0.035,1.132 -0.103,2.481 0.605,3.375 1.586,1.441 6.383,0.547 8.619,0.794 6.985,-0.01 13.967,-0.134 20.95,-0.286 9.332,-0.345 18.653,-0.172 27.982,-0.307 2.864,0.032 3.38,-2.642 3.423,-4.931 0.132,-2.163 0.256,-4.295 0.361,-6.463 0.716,-4.916 -2.29,-5.076 -6.25,-5.174 -9.471,-0.235 -18.939,0.238 -28.402,0.339 -7.637,0.648 -6.159,-1.592 -6.354,-7.799 0.097,-2.279 -0.249,-4.632 0.096,-6.887 C 21.437,7.172 23.691,7.531 25.167,7.414 32.516,7.181 39.879,6.95 47.263,6.681 48.59,6.6 50.176,6.662 51.3,5.919 c 2.19,-1.731 0.931,-8.712 1.044,-11.501 0.26,-5.042 -5.15,-3.953 -8.565,-4.049 -6.124,0.134 -12.249,0.053 -18.371,0.328 -3.791,0.312 -4.588,-1.912 -4.454,-5.241 0.092,-3.479 -0.199,-7.038 0.155,-10.502 0.76,-2.739 5.014,-1.36 7.16,-1.802 3.677,-0.152 7.349,-0.411 11.029,-0.492 5.661,-0.116 11.306,-0.259 16.979,-0.341 1.899,0.058 4.338,-0.142 4.495,-2.507 0.439,-3.461 0.102,-6.959 0.068,-10.433 0.238,-3.681 -2.82,-3.883 -5.727,-3.851 -16.202,-0.409 -32.377,-0.649 -48.556,-0.43 -1.611,0.045 -3.65,0.159 -4.906,1.112 -1.306,1.064 -1.112,3.075 -1.198,4.626 -0.72,13.034 0.04,26.074 -0.451,39.1 z"
         style="fill:#ffffff;fill-opacity:1;fill-rule:nonzero;stroke:none"
         transform="matrix(1.3333333,0,0,-1.3333333,5225.997,4303.4668)"
         clip-path="url(#clipPath37-5)" />
      <path
         id="path40-1"
         d="m 0,0 c 0.633,13.197 0.839,26.395 0.474,39.599 0.06,2.973 3.814,2.189 5.842,2.436 4.175,-0.091 8.552,0.614 12.645,-0.311 3.705,-1.492 1.692,-15.531 2.276,-19.57 -0.506,-14.926 -0.287,-29.879 0.051,-44.81 -0.721,-6.42 18.491,-2.925 22.569,-2.877 13.511,1.617 10.522,-3.501 10.416,-14.048 -0.282,-3.831 -5.563,-2.446 -8.22,-3.076 -6.695,-0.524 -13.426,-0.527 -20.132,-0.923 -6.363,-0.404 -12.747,-0.222 -19.102,-0.303 -3.445,-0.198 -6.988,0.749 -6.59,4.892 -0.08,12.985 -0.348,25.96 -0.23,38.93 z"
         style="fill:#ffffff;fill-opacity:1;fill-rule:nonzero;stroke:none"
         transform="matrix(1.3333333,0,0,-1.3333333,5140.2164,4305.4567)"
         clip-path="url(#clipPath41-4)" />
      <path
         id="path22-1"
         d="m 0,0 c -0.43,8.412 -1.03,16.831 -1.008,25.262 0.243,1.965 -0.841,3.551 -2.878,3.734 -3.094,0.715 -6.219,0.814 -9.359,0.879 -3.344,0.277 -4.928,-1.148 -4.737,-4.599 -0.272,-10.707 -0.764,-21.38 -1.137,-32.085 0.061,-8.752 0.883,-17.414 1.111,-26.17 0.042,-8.632 2.721,-16.19 11.547,-19.003 7.686,-5.983 17.86,-6.211 27.11,-5.023 10.107,0.98 21.026,4.568 26.279,13.894 1.321,2.759 1.444,5.929 1.897,8.915 1.642,15.118 0.761,30.347 1.106,45.511 0.038,4.708 -0.051,9.419 -0.351,14.113 0.057,2.303 -1.457,3.632 -3.752,3.44 -5.176,0.111 -10.304,0.095 -15.456,-0.029 -3.418,0.101 -3.93,-2.26 -3.805,-5.169 -0.053,-6.331 0.014,-12.663 0.149,-19.003 0.322,-9.137 0.69,-18.273 0.108,-27.412 -0.316,-10.834 0.241,-13.731 -10.91,-18.147 -3.994,-1.176 -8.127,-0.332 -11.636,1.823 -2.78,2.204 -3.337,6.247 -3.76,9.58 -0.879,9.779 -0.306,19.632 -0.516,29.428 z"
         style="fill:#ffffff;fill-opacity:1;fill-rule:nonzero;stroke:none"
         transform="matrix(1.3333333,0,0,-1.3333333,4943.6694,4291.9343)"
         clip-path="url(#clipPath23-8)" />
      <path
         id="path28-8"
         d="m 0,0 c 0.01,-0.362 1.067,-0.696 1.508,-0.886 3.319,-1.293 6.228,-2.955 8.619,-5.415 2.99,-3.097 5.427,-6.851 5.364,-11.304 1.002,-5.185 -0.312,-7.531 -2.147,-12.181 -0.681,-2.375 -2.065,-4.388 -3.734,-6.187 -3.804,-4.361 -9.234,-7.218 -15.03,-7.538 -7.81,-1.145 -15.706,-1.079 -23.578,-1.029 -7.605,0.123 -15.218,0.585 -22.775,1.39 -1.481,0.207 -2.949,0.94 -2.998,2.621 -0.254,13.86 -0.451,27.73 -0.679,41.615 -0.124,8.626 -0.097,17.258 0.104,25.879 0.039,3.343 -0.006,6.693 0.041,10.03 -0.103,1.879 0.746,3.409 2.824,3.409 13.443,0.598 26.907,0.204 40.367,0.271 5.324,0.089 10.606,-1.369 15.283,-3.935 5.452,-3.643 7.853,-10.186 9.266,-16.306 0.792,-2.59 0.075,-5.277 -0.242,-7.911 C 11.43,7.54 7.296,4.003 3.096,1.646 2.276,1.055 0.537,0.814 0,0.02 Z"
         style="fill:#ffffff;fill-opacity:1;fill-rule:nonzero;stroke:none"
         transform="matrix(1.3333333,0,0,-1.3333333,5103.7406,4305.3355)"
         clip-path="url(#clipPath29-0)" />
      <path
         id="path100-6"
         d="m 0,0 c -0.954,2.814 -6.058,1.098 -8.395,1.546 -11.889,0.11 -23.793,0.518 -35.685,0.691 -6.357,0.094 -12.213,0.062 -18.996,0.076 -3.002,0.331 -2.168,-1.481 -2.267,-3.802 0.001,-3.864 -10e-4,-9.821 0.001,-12.102 -0.057,-1.415 1.244,-1.179 2.519,-1.276 5.301,-0.144 10.815,-0.303 13.696,-0.337 2.17,-0.356 6.647,0.959 6.964,-2.249 0.576,-19.75 1.885,-39.515 2.153,-59.287 -0.845,-6.375 0.66,-4.417 5.737,-4.657 3.478,-0.099 6.991,-0.447 10.486,-0.204 2.558,-0.051 2.975,2.335 2.867,4.451 0.417,20.542 -0.518,41.169 0.092,61.661 1.032,2.433 4.418,1.548 6.541,1.687 4.154,-0.07 8.374,-0.125 12.501,0.377 2.378,0.489 1.811,3.528 1.927,5.501 -0.051,2.615 0.21,5.279 -0.128,7.871 z"
         style="fill:#ffffff;fill-opacity:1;fill-rule:nonzero;stroke:none"
         transform="matrix(1.3333333,0,0,-1.3333333,4679.1712,4258.0834)"
         clip-path="url(#clipPath101-1)" />
    </g>
  </g>
  <g
     id="g479"
     transform="translate(-3747.8236,-4856)">
    <path
       id="path20-5-0"
       d="m 0,0 c -0.391,-2.267 -2.257,-4.371 -4.089,-5.604 -1.18,-0.769 -2.54,-1.054 -3.928,-1.198 -5.812,-0.484 -11.631,0.019 -17.447,0.273 -2.577,0.034 -3.513,0.794 -3.301,3.423 0.163,3.873 0.372,7.729 0.488,11.598 0.021,1.632 0.117,3.697 2.162,3.935 3.308,0.327 6.695,-0.18 10.017,-0.281 3.362,-0.312 6.924,-0.014 10.087,-1.384 C -1.94,9.04 0.675,4.427 0.01,0.058 Z m -5.213,-41.182 c -1.612,-1.148 -3.387,-2.233 -5.308,-2.797 -1.891,-0.557 -3.855,-0.292 -5.81,-0.176 -3.028,0.21 -6.054,0.449 -9.078,0.714 -1.546,0.152 -3.686,0.124 -3.738,2.159 -0.107,2.949 0.258,5.994 0.29,8.925 0.057,2.42 0.153,4.823 0.265,7.253 0.065,3.51 1.242,3.919 4.514,3.526 4.058,-0.365 8.126,-0.567 12.185,-0.853 2.586,-0.295 5.642,-0.452 7.559,-2.413 1.258,-1.437 1.685,-3.713 2.453,-5.515 1.588,-3.691 -0.141,-8.443 -3.286,-10.788 z m 29.123,11.436 c -1.253,2.607 -2.466,5.385 -4.41,7.558 -2.526,2.147 -5.473,3.916 -8.519,5.219 -2.52,0.888 -1.721,1.931 0.152,2.965 3.403,2.17 6.392,5.036 8.713,8.339 1.667,3.45 2.759,7.382 2.737,11.206 -0.172,3.557 -1.793,7.065 -4.557,9.336 -2.257,1.969 -4.414,4.085 -6.895,5.767 -1.775,1.176 -3.868,1.742 -5.975,2.05 -6.102,0.899 -12.231,1.319 -18.334,2.144 -8.979,1.06 -18.084,0.36 -27.054,-0.57 -1.231,-0.168 -2.861,-0.323 -3.594,-1.373 -0.571,-0.794 -0.535,-2.078 -0.553,-3.103 -0.185,-12.735 0.033,-25.459 -0.415,-38.18 0.014,-7.19 -0.285,-14.377 -0.154,-21.564 -0.288,-4.559 -0.281,-9.134 0.032,-13.7 0.052,-1.431 0.073,-3.291 0.936,-4.373 1.359,-1.754 6.201,-0.598 8.389,-0.787 8.146,0.263 16.276,-0.161 24.394,-0.592 7.264,-0.035 14.796,-0.059 21.674,2.561 5.953,2.638 10.274,8.132 13.253,13.762 1.12,3.888 1.423,9.404 0.201,13.279 z"
       style="fill:#ffffff;fill-opacity:1;fill-rule:nonzero;stroke:none"
       transform="matrix(1.3333333,0,0,-1.3333333,4929.6487,4891.8251)"
       clip-path="url(#clipPath21-4-9)" />
    <path
       id="path26-2-4"
       d="m 0,0 c -1.271,1.493 -2.954,2.463 -4.709,3.348 -1.94,1.047 -3.963,1.924 -5.977,2.828 -3.414,1.659 0.341,2.232 1.927,3.003 3.114,1.53 6.144,3.654 7.905,6.635 2.125,4.049 2.928,10.527 2.335,15.061 -0.709,5.553 -5.111,11.351 -10.038,13.641 -1.819,0.785 -3.843,1.074 -5.808,1.275 -3.478,0.367 -6.927,0.873 -10.415,1.013 -10.546,0.503 -36.213,0.129 -42.501,0.237 -0.218,-0.008 -0.268,-0.01 -0.258,-0.234 0.004,-0.175 0.013,-0.475 0.025,-0.889 0.449,-16.748 2.246,-78.422 2.352,-82.821 0.004,-0.068 0.008,-0.112 0.029,-0.14 0.04,-0.056 0.163,-0.046 0.488,-0.042 11.786,0.218 31.791,0.608 44.202,0.839 0.99,0.062 1.245,-0.031 2.297,0.028 1.036,0.122 2.127,0.388 3.205,0.644 3.23,0.629 6.297,1.758 9.165,3.417 2.406,1.285 4.729,2.84 5.944,5.377 1.659,3.065 3.273,6.236 3.764,9.75 0.816,6.061 0.33,12.387 -3.891,16.983 z"
       style="fill:#ffffff;fill-opacity:1;fill-rule:nonzero;stroke:none"
       transform="matrix(1.3333333,0,0,-1.3333333,5068.0522,4922.5507)"
       clip-path="url(#clipPath27-9-5)" />
    <path
       id="path32-1-6"
       d="m 0,0 c 0.43,8.412 1.03,16.831 1.008,25.262 -0.243,1.965 0.841,3.551 2.878,3.734 3.094,0.715 6.219,0.814 9.359,0.879 3.344,0.277 4.928,-1.148 4.737,-4.599 0.442,-16.967 1.805,-33.91 0.32,-50.865 -0.327,-10.583 0.37,-22.544 -11.841,-26.393 -7.686,-5.983 -17.86,-6.211 -27.11,-5.023 -13.674,1.447 -27.691,7.106 -28.176,22.81 -1.642,15.117 -0.761,30.346 -1.106,45.51 -0.038,4.708 0.051,9.419 0.351,14.113 -0.1,2.247 1.527,3.668 3.752,3.44 5.176,0.111 10.304,0.095 15.456,-0.029 3.418,0.101 3.93,-2.26 3.805,-5.169 0.053,-6.331 -0.014,-12.663 -0.149,-19.003 -0.322,-9.137 -0.69,-18.273 -0.108,-27.412 0.285,-10.78 -0.175,-13.796 10.91,-18.147 3.994,-1.176 8.127,-0.332 11.636,1.823 2.78,2.204 3.337,6.247 3.76,9.58 0.879,9.779 0.306,19.632 0.516,29.428 z"
       style="fill:#ffffff;fill-opacity:1;fill-rule:nonzero;stroke:none"
       transform="matrix(1.3333333,0,0,-1.3333333,4820.5912,4898.4204)"
       clip-path="url(#clipPath33-7-4)" />
    <path
       id="path34-5-4"
       d="m 0,0 c 8.715,-0.079 18.981,0.885 28.212,-0.749 5.291,-1.401 2.91,-7.795 2.937,-11.704 0.105,-4.665 -3.702,-3.747 -7.004,-3.973 -5.544,-0.109 -11.067,-0.615 -16.602,-0.81 -4.832,-0.232 -9.928,0.416 -14.669,-0.624 -3.045,-0.746 -1.607,-10.275 -1.854,-13.049 0.027,-0.953 0.141,-2.116 1.085,-2.591 2.734,-0.871 5.796,-0.515 8.646,-0.715 6.48,-0.166 13,-0.044 19.475,-0.553 2.611,-0.173 2.751,-3.042 2.869,-5.083 -0.107,-3.052 0.434,-6.508 -0.893,-9.31 -1.001,-1.228 -2.939,-1.022 -4.395,-1.082 -8.161,-0.167 -16.353,0.255 -24.479,-0.258 -3.432,-0.452 -1.681,-6.245 -2.098,-8.741 0.346,-2.224 -0.662,-6.251 1.053,-7.774 1.334,-0.696 3.089,-0.223 4.561,-0.294 5.415,-0.545 33.011,2.795 33.945,-1.871 1.107,-3.879 0.518,-8.119 0.385,-12.097 -0.037,-2.42 -0.85,-4.376 -3.693,-4.104 -15.823,-0.264 -31.622,0.803 -47.445,0.307 -2.784,0.167 -6.685,-0.914 -8.868,1.127 -0.766,1.102 -0.667,3.047 -0.694,4.455 -0.036,10.884 0.038,21.756 -0.154,32.634 -0.493,14.576 -0.759,29.159 -0.252,43.738 0.021,1.921 1.61,2.59 3.298,2.601 8.525,0.518 17.393,0.488 26.573,0.519 z"
       style="fill:#ffffff;fill-opacity:1;fill-rule:nonzero;stroke:none"
       transform="matrix(1.3333333,0,0,-1.3333333,5217.1134,4856.2817)"
       clip-path="url(#clipPath35-5-3)" />
    <path
       id="path38-1-6"
       d="m 0,0 c -0.151,14.88 -1.548,28.691 0.553,42.616 0.352,1.843 19.151,2.903 19.914,1.384 1.775,-2.432 0.7,-6.071 0.999,-8.924 0.17,-16.726 -0.088,-33.45 0.267,-50.172 0.578,-2.433 -0.799,-7.167 1.883,-8.311 8.752,-0.613 17.55,0.96 26.326,0.812 3.001,0.393 5.847,-1.4 5.332,-4.693 -0.157,-3.491 -0.256,-6.966 -0.621,-10.461 0.046,-2.916 -1.821,-3.668 -4.433,-3.617 -14.653,-0.241 -29.348,0.22 -44.005,-0.465 -6.144,-0.426 -5.826,3.071 -5.628,7.932 -0.039,11.248 -0.63,22.609 -0.585,33.843 z"
       style="fill:#ffffff;fill-opacity:1;fill-rule:nonzero;stroke:none"
       transform="matrix(1.3333333,0,0,-1.3333333,5090.4184,4916.2396)"
       clip-path="url(#clipPath39-5-3)" />
    <path
       id="path102-0-4"
       d="m 0,0 c -1.526,0.105 -3.165,0.391 -4.761,0.387 -3.019,0.408 -8.869,-1.049 -9.603,3.034 -0.202,8.212 0.171,16.421 0.377,24.627 -0.132,2.433 0.828,6.881 -2.794,6.862 -5.328,0.075 -10.642,0.004 -15.956,-0.582 -2.032,-0.506 -4.433,0.563 -6.301,-0.368 -1.064,-1.029 -0.559,-2.899 -0.751,-4.258 -0.177,-3.175 -0.095,-6.365 -0.222,-9.542 -0.558,-6.003 0.372,-12.415 -1.193,-18.227 -0.653,-1.064 -2.084,-1.171 -3.242,-1.248 -4.14,-0.266 -8.228,-0.959 -12.385,-0.949 -3.648,-0.215 -4.348,2.113 -4.121,5.33 -0.015,25.753 1.278,51.464 1.265,77.207 -0.001,1.816 1.318,2.636 2.948,2.606 4.061,0.158 8.115,0.228 12.199,0.147 4.332,0.131 5.362,-0.912 5.126,-5.23 0.174,-8.536 -0.468,-17.05 -0.277,-25.572 0.03,-2.757 6.033,-1.8 7.986,-2.026 4.547,0.096 9.086,0.116 13.643,0.179 1.558,-0.108 3.142,0.477 3.089,2.265 0.322,8.412 0.372,16.841 0.675,25.253 0.015,2.835 0.621,4.425 3.862,4.12 4.736,-0.156 9.537,0.189 14.242,-0.37 C 7.643,83.046 6.451,72.038 6.172,69.063 6.807,58.214 7.097,47.31 6.929,36.41 6.962,25.487 6.715,14.614 6.632,3.702 6.688,-0.235 3.15,-0.227 0.059,-0.004 Z"
       style="fill:#ffffff;fill-opacity:1;fill-rule:nonzero;stroke:none"
       transform="matrix(1.3333333,0,0,-1.3333333,4724.3208,4973.0867)"
       clip-path="url(#clipPath103-1-5)" />
  </g>
</svg>
